<svg width="85" height="23" viewBox="0 0 85 23" fill="none" xmlns="http://www.w3.org/2000/svg">
<path d="M2.15173e-05 22.4V6.52799H4.92802V8.99199C5.48269 8.18133 6.18669 7.50933 7.04002 6.97599C7.89336 6.42133 8.87469 6.14399 9.98402 6.14399V11.36H8.60802C7.37069 11.36 6.44269 11.6373 5.82402 12.192C5.22669 12.7467 4.92802 13.664 4.92802 14.944V22.4H2.15173e-05ZM20.0553 22.784C18.5833 22.784 17.2286 22.4747 15.9913 21.856C14.7539 21.216 13.7619 20.2773 13.0153 19.04C12.2686 17.8027 11.8953 16.2773 11.8953 14.464C11.8953 12.6507 12.2579 11.1253 12.9833 9.88799C13.7086 8.65066 14.6899 7.72266 15.9273 7.10399C17.1646 6.46399 18.5406 6.14399 20.0553 6.14399C21.6339 6.14399 23.0206 6.47466 24.2153 7.13599C25.4313 7.77599 26.3806 8.70399 27.0633 9.91999C27.7673 11.1147 28.1193 12.544 28.1193 14.208C28.1193 14.4213 28.1086 14.656 28.0873 14.912C28.0873 15.1467 28.0659 15.392 28.0233 15.648H16.8233C16.8873 16.416 17.0686 17.024 17.3673 17.472C17.6873 17.92 18.0713 18.2507 18.5193 18.464C18.9886 18.656 19.4473 18.752 19.8953 18.752C20.5139 18.752 21.0366 18.624 21.4633 18.368C21.8899 18.112 22.2206 17.7173 22.4553 17.184H27.7353C27.5006 18.1867 27.0313 19.1147 26.3273 19.968C25.6233 20.8213 24.7379 21.504 23.6713 22.016C22.6259 22.528 21.4206 22.784 20.0553 22.784ZM16.8233 12.896H23.0313C23.0313 12.0213 22.7433 11.3387 22.1673 10.848C21.5913 10.3573 20.8659 10.112 19.9913 10.112C19.1379 10.112 18.4339 10.368 17.8793 10.88C17.3246 11.3707 16.9726 12.0427 16.8233 12.896ZM30.8428 22.4V-7.62939e-06H35.7708V22.4H30.8428ZM43.8283 22.784C42.9109 22.784 42.0576 22.6027 41.2683 22.24C40.4789 21.856 39.8389 21.312 39.3483 20.608C38.8789 19.8827 38.6443 19.008 38.6443 17.984C38.6443 16.8107 38.9536 15.8613 39.5723 15.136C40.1909 14.3893 41.0123 13.8453 42.0363 13.504C43.0816 13.1627 44.2229 12.992 45.4603 12.992H49.0443C49.0443 12.4373 48.9483 11.9467 48.7563 11.52C48.5643 11.0933 48.2763 10.7627 47.8923 10.528C47.5083 10.272 47.0283 10.144 46.4523 10.144C45.8549 10.144 45.3109 10.272 44.8203 10.528C44.3296 10.784 44.0203 11.2213 43.8923 11.84H39.1243C39.2096 10.6667 39.6043 9.66399 40.3083 8.83199C41.0123 7.97866 41.9083 7.31733 42.9963 6.84799C44.1056 6.37866 45.2896 6.14399 46.5483 6.14399C48.0203 6.14399 49.3109 6.42133 50.4203 6.97599C51.5509 7.50933 52.4256 8.28799 53.0443 9.31199C53.6629 10.3147 53.9723 11.5307 53.9723 12.96V17.024C53.9723 17.4933 54.0363 17.856 54.1643 18.112C54.3136 18.368 54.6869 18.496 55.2843 18.496V22.4C54.2603 22.4 53.4069 22.336 52.7243 22.208C52.0416 22.08 51.4656 21.8453 50.9963 21.504C50.5269 21.1413 50.1003 20.6187 49.7163 19.936C49.0123 20.8747 48.1803 21.5893 47.2203 22.08C46.2603 22.5493 45.1296 22.784 43.8283 22.784ZM45.5563 19.008C46.1749 19.008 46.7403 18.88 47.2523 18.624C47.7856 18.3467 48.2123 17.9627 48.5323 17.472C48.8523 16.9813 49.0123 16.4267 49.0123 15.808V15.616H45.9723C45.5456 15.616 45.1509 15.68 44.7883 15.808C44.4256 15.9147 44.1376 16.096 43.9243 16.352C43.7109 16.5867 43.6043 16.9173 43.6043 17.344C43.6043 17.9627 43.8069 18.4 44.2123 18.656C44.6176 18.8907 45.0656 19.008 45.5563 19.008ZM63.4583 22.4C61.5809 22.4 60.1623 21.9413 59.2023 21.024C58.2636 20.1067 57.7943 18.6987 57.7943 16.8V10.592H56.1303V6.52799H57.7943V2.59199H62.7223V6.52799H65.9543V10.592H62.7223V16.864C62.7223 17.3973 62.8289 17.76 63.0423 17.952C63.2769 18.1227 63.6609 18.208 64.1943 18.208H65.9543V22.4H63.4583ZM76.368 22.784C74.832 22.784 73.424 22.464 72.144 21.824C70.8854 21.1627 69.872 20.2133 69.104 18.976C68.3574 17.7387 67.984 16.2347 67.984 14.464C67.984 12.7787 68.3467 11.3173 69.072 10.08C69.8187 8.84266 70.832 7.88266 72.112 7.19999C73.392 6.49599 74.832 6.14399 76.432 6.14399C78.1387 6.14399 79.6214 6.50666 80.88 7.23199C82.1387 7.93599 83.12 8.91733 83.824 10.176C84.528 11.4133 84.88 12.8427 84.88 14.464C84.88 16.1493 84.5067 17.6213 83.76 18.88C83.0134 20.1173 82 21.0773 80.72 21.76C79.44 22.4427 77.9894 22.784 76.368 22.784ZM76.4 18.496C77.104 18.496 77.712 18.3253 78.224 17.984C78.736 17.6427 79.1307 17.1627 79.408 16.544C79.7067 15.9253 79.856 15.2213 79.856 14.432C79.856 13.5573 79.696 12.832 79.376 12.256C79.0774 11.6587 78.6614 11.2107 78.128 10.912C77.616 10.6133 77.04 10.464 76.4 10.464C75.7387 10.464 75.1414 10.624 74.608 10.944C74.096 11.264 73.6907 11.7227 73.392 12.32C73.0934 12.9173 72.944 13.632 72.944 14.464C72.944 15.2533 73.0827 15.9573 73.36 16.576C73.6587 17.1733 74.064 17.6427 74.576 17.984C75.088 18.3253 75.696 18.496 76.4 18.496Z" fill="#08272A"/>
</svg>
