<svg width="21" height="21" viewBox="0 0 21 21" fill="none" xmlns="http://www.w3.org/2000/svg">
<path d="M10.5609 15.7L6.41088 18.2C6.22754 18.3167 6.03588 18.3667 5.83588 18.35C5.63588 18.3333 5.46088 18.2667 5.31088 18.15C5.16088 18.0333 5.04421 17.8877 4.96088 17.713C4.87754 17.5383 4.86088 17.3423 4.91088 17.125L6.01088 12.4L2.33588 9.225C2.16921 9.075 2.06521 8.904 2.02388 8.712C1.98254 8.52 1.99488 8.33267 2.06088 8.15C2.12688 7.96733 2.22688 7.81733 2.36088 7.7C2.49488 7.58267 2.67821 7.50767 2.91088 7.475L7.76088 7.05L9.63588 2.6C9.71921 2.4 9.84854 2.25 10.0239 2.15C10.1992 2.05 10.3782 2 10.5609 2C10.7435 2 10.9225 2.05 11.0979 2.15C11.2732 2.25 11.4025 2.4 11.4859 2.6L13.3609 7.05L18.2109 7.475C18.4442 7.50833 18.6275 7.58333 18.7609 7.7C18.8942 7.81667 18.9942 7.96667 19.0609 8.15C19.1275 8.33333 19.1402 8.521 19.0989 8.713C19.0575 8.905 18.9532 9.07567 18.7859 9.225L15.1109 12.4L16.2109 17.125C16.2609 17.3417 16.2442 17.5377 16.1609 17.713C16.0775 17.8883 15.9609 18.034 15.8109 18.15C15.6609 18.266 15.4859 18.3327 15.2859 18.35C15.0859 18.3673 14.8942 18.3173 14.7109 18.2L10.5609 15.7Z" fill="#FADE24"/>
</svg>
