<svg width="24" height="26" viewBox="0 0 24 26" fill="none" xmlns="http://www.w3.org/2000/svg">
<path d="M8.26145 16.6408L19.4765 5.44891C19.7411 5.18479 20.0499 5.05273 20.4028 5.05273C20.7557 5.05273 21.0645 5.18479 21.3291 5.44891C21.5938 5.71302 21.7261 6.02688 21.7261 6.39048C21.7261 6.75407 21.5938 7.06749 21.3291 7.33073L9.18776 19.48C8.9231 19.7441 8.61433 19.8762 8.26145 19.8762C7.90857 19.8762 7.59979 19.7441 7.33513 19.48L1.64491 13.8015C1.38025 13.5374 1.25321 13.224 1.26379 12.8613C1.27438 12.4986 1.41245 12.1847 1.67799 11.9197C1.94353 11.6547 2.25804 11.5227 2.62151 11.5235C2.98498 11.5244 3.29904 11.6565 3.5637 11.9197L8.26145 16.6408Z" fill="#00CC0E"/>
</svg>
