<svg width="32" height="32" viewBox="0 0 32 32" fill="none" xmlns="http://www.w3.org/2000/svg">
<path d="M23.3333 8.6665H23.3466M9.33329 2.6665H22.6666C26.3485 2.6665 29.3333 5.65127 29.3333 9.33317V22.6665C29.3333 26.3484 26.3485 29.3332 22.6666 29.3332H9.33329C5.65139 29.3332 2.66663 26.3484 2.66663 22.6665V9.33317C2.66663 5.65127 5.65139 2.6665 9.33329 2.6665ZM21.3333 15.1598C21.4978 16.2695 21.3083 17.4028 20.7916 18.3985C20.275 19.3943 19.4575 20.2017 18.4555 20.7061C17.4534 21.2104 16.3179 21.386 15.2103 21.2077C14.1028 21.0295 13.0796 20.5066 12.2864 19.7134C11.4932 18.9202 10.9703 17.897 10.792 16.7895C10.6138 15.6819 10.7894 14.5464 11.2937 13.5443C11.7981 12.5423 12.6055 11.7248 13.6013 11.2082C14.597 10.6915 15.7303 10.502 16.84 10.6665C17.9719 10.8344 19.0198 11.3618 19.8289 12.1709C20.638 12.98 21.1654 14.0279 21.3333 15.1598Z" stroke="#08272A" stroke-width="2.66667" stroke-linecap="round" stroke-linejoin="round"/>
</svg>
