<svg width="48" height="48" viewBox="0 0 48 48" fill="none" xmlns="http://www.w3.org/2000/svg">
<rect width="48" height="48" rx="8" fill="#08272A"/>
<path d="M34.6667 17.3333H29.3334V13.3333C29.3334 11.8626 28.1374 10.6666 26.6667 10.6666H21.3334C19.8627 10.6666 18.6667 11.8626 18.6667 13.3333V20H13.3334C11.8627 20 10.6667 21.196 10.6667 22.6666V34.6666C10.6667 35.0202 10.8072 35.3594 11.0573 35.6094C11.3073 35.8595 11.6465 36 12.0001 36H36.0001C36.3537 36 36.6928 35.8595 36.9429 35.6094C37.1929 35.3594 37.3334 35.0202 37.3334 34.6666V20C37.3334 18.5293 36.1374 17.3333 34.6667 17.3333ZM13.3334 22.6666H18.6667V33.3333H13.3334V22.6666ZM21.3334 21.3333V13.3333H26.6667V33.3333H21.3334V21.3333ZM34.6667 33.3333H29.3334V20H34.6667V33.3333Z" fill="#FEFEFE"/>
</svg>
