<svg width="48" height="48" viewBox="0 0 48 48" fill="none" xmlns="http://www.w3.org/2000/svg">
<rect width="48" height="48" rx="8" fill="#08272A"/>
<path d="M14.3333 13.3334C14.3333 13.0682 14.2279 12.8138 14.0404 12.6263C13.8528 12.4387 13.5985 12.3334 13.3333 12.3334C13.068 12.3334 12.8137 12.4387 12.6261 12.6263C12.4386 12.8138 12.3333 13.0682 12.3333 13.3334V32.6667C12.3333 33.4624 12.6493 34.2254 13.2119 34.788C13.7745 35.3506 14.5376 35.6667 15.3333 35.6667H34.6666C34.9318 35.6667 35.1862 35.5614 35.3737 35.3738C35.5612 35.1863 35.6666 34.9319 35.6666 34.6667C35.6666 34.4015 35.5612 34.1471 35.3737 33.9596C35.1862 33.7721 34.9318 33.6667 34.6666 33.6667H15.3333C15.068 33.6667 14.8137 33.5614 14.6261 33.3738C14.4386 33.1863 14.3333 32.9319 14.3333 32.6667V28.9734L20.2666 23.04L24.8293 27.604C25.0168 27.7913 25.2709 27.8965 25.5359 27.8965C25.8009 27.8965 26.0551 27.7913 26.2426 27.604L31.9959 21.8507V24.156C31.9959 24.4213 32.1013 24.6756 32.2888 24.8631C32.4763 25.0507 32.7307 25.156 32.9959 25.156C33.2611 25.156 33.5155 25.0507 33.703 24.8631C33.8906 24.6756 33.9959 24.4213 33.9959 24.156V19.44C33.9959 19.1748 33.8906 18.9205 33.703 18.7329C33.5155 18.5454 33.2611 18.44 32.9959 18.44H28.2813C28.016 18.44 27.7617 18.5454 27.5741 18.7329C27.3866 18.9205 27.2813 19.1748 27.2813 19.44C27.2813 19.7053 27.3866 19.9596 27.5741 20.1471C27.7617 20.3347 28.016 20.44 28.2813 20.44H30.5773L25.5373 25.48L20.9733 20.92C20.7858 20.7328 20.5316 20.6276 20.2666 20.6276C20.0016 20.6276 19.7474 20.7328 19.5599 20.92L14.3333 26.1467V13.3334Z" fill="#FEFEFE"/>
</svg>
