<svg width="48" height="48" viewBox="0 0 48 48" fill="none" xmlns="http://www.w3.org/2000/svg">
<rect width="48" height="48" rx="8" fill="#08272A"/>
<path d="M31.9998 36C31.9998 33.1711 30.876 30.458 28.8756 28.4576C26.8753 26.4572 24.1621 25.3334 21.3332 25.3334C18.5042 25.3334 15.7911 26.4572 13.7907 28.4576C11.7903 30.458 10.6665 33.1711 10.6665 36" stroke="#FEFEFE" stroke-width="2.66667" stroke-linecap="round" stroke-linejoin="round"/>
<path d="M21.3332 25.3333C25.0151 25.3333 27.9998 22.3486 27.9998 18.6667C27.9998 14.9848 25.0151 12 21.3332 12C17.6513 12 14.6665 14.9848 14.6665 18.6667C14.6665 22.3486 17.6513 25.3333 21.3332 25.3333Z" stroke="#FEFEFE" stroke-width="2.66667" stroke-linecap="round" stroke-linejoin="round"/>
<path d="M37.3332 34.6667C37.3332 30.1733 34.6666 26 31.9999 24C32.8765 23.3424 33.5774 22.4788 34.0407 21.4857C34.5039 20.4926 34.7153 19.4006 34.6559 18.3064C34.5966 17.2122 34.2685 16.1495 33.7005 15.2123C33.1326 14.2751 32.3424 13.4924 31.3999 12.9333" stroke="#FEFEFE" stroke-width="2.66667" stroke-linecap="round" stroke-linejoin="round"/>
</svg>
