<svg width="64" height="64" viewBox="0 0 64 64" fill="none" xmlns="http://www.w3.org/2000/svg">
<rect x="1" y="1" width="62" height="62" rx="15" stroke="#DBDBDB" stroke-width="2"/>
<path d="M48 26C46.41 18.03 39.026 12 30.16 12C20.128 12 12 19.71 12 29.22C12 33.79 13.876 37.94 16.938 41.02C17.61 41.7 18.06 42.626 17.878 43.58C17.5823 45.1313 16.9045 46.5845 15.906 47.808C18.5229 48.2822 21.2232 47.866 23.576 46.626C24.4 46.19 24.814 45.974 25.104 45.93C25.308 45.898 25.574 45.928 26 46" stroke="#0C0C0C" stroke-width="3.225" stroke-linecap="round" stroke-linejoin="round"/>
<path d="M30 40.524C30 46.334 34.926 51.046 41 51.046C41.716 51.046 42.4253 50.9807 43.128 50.85C43.634 50.756 43.886 50.708 44.062 50.734C44.238 50.762 44.488 50.894 44.988 51.16C46.4 51.912 48.048 52.178 49.634 51.882C49.0271 51.134 48.6161 50.2466 48.438 49.3C48.328 48.716 48.6 48.15 49.01 47.736C50.92 45.8212 51.9948 43.2285 52 40.524C52 34.712 47.074 30 41 30C34.926 30 30 34.712 30 40.524Z" stroke="#0C0C0C" stroke-width="3.225" stroke-linejoin="round"/>
</svg>
