<svg width="64" height="64" viewBox="0 0 64 64" fill="none" xmlns="http://www.w3.org/2000/svg">
<path d="M48.0001 26.0001C46.4101 18.0301 39.0261 12.0001 30.1601 12.0001C20.1281 12.0001 12.0001 19.7101 12.0001 29.2201C12.0001 33.7901 13.8761 37.9401 16.9381 41.0201C17.6101 41.7001 18.0601 42.6261 17.8781 43.5801C17.5824 45.1315 16.9047 46.5846 15.9061 47.8081C18.523 48.2823 21.2234 47.8661 23.5761 46.6261C24.4001 46.1901 24.8141 45.9741 25.1041 45.9301C25.3081 45.8981 25.5741 45.9281 26.0001 46.0001" stroke="#08272A" stroke-width="3.225" stroke-linecap="round" stroke-linejoin="round"/>
<path d="M30.0002 40.5242C30.0002 46.3342 34.9262 51.0462 41.0002 51.0462C41.7162 51.0462 42.4256 50.9809 43.1282 50.8502C43.6342 50.7562 43.8862 50.7082 44.0622 50.7342C44.2382 50.7622 44.4882 50.8942 44.9882 51.1602C46.4002 51.9122 48.0482 52.1782 49.6342 51.8822C49.0274 51.1342 48.6163 50.2469 48.4382 49.3002C48.3282 48.7162 48.6002 48.1502 49.0102 47.7362C50.9202 45.8214 51.9951 43.2288 52.0002 40.5242C52.0002 34.7122 47.0742 30.0002 41.0002 30.0002C34.9262 30.0002 30.0002 34.7122 30.0002 40.5242Z" stroke="#08272A" stroke-width="3.225" stroke-linejoin="round"/>
</svg>
