<svg width="64" height="64" viewBox="0 0 64 64" fill="none" xmlns="http://www.w3.org/2000/svg">
<path d="M50 44.75C50 46.1424 49.4469 47.4777 48.4623 48.4623C47.4777 49.4469 46.1424 50 44.75 50H37.25C35.8576 50 34.5223 49.4469 33.5377 48.4623C32.5531 47.4777 32 46.1424 32 44.75V34.25C32 31.352 34.352 29 37.25 29H44.75C47.648 29 50 31.352 50 34.25V44.75ZM44.75 47C45.3467 47 45.919 46.7629 46.341 46.341C46.7629 45.919 47 45.3467 47 44.75V34.25C47 33.6533 46.7629 33.081 46.341 32.659C45.919 32.2371 45.3467 32 44.75 32H37.25C36.6533 32 36.081 32.2371 35.659 32.659C35.2371 33.081 35 33.6533 35 34.25V44.75C35 45.992 36.008 47 37.25 47H44.75ZM29 29.75C29 31.1424 28.4469 32.4777 27.4623 33.4623C26.4777 34.4469 25.1424 35 23.75 35H19.25C17.8576 35 16.5223 34.4469 15.5377 33.4623C14.5531 32.4777 14 31.1424 14 29.75V19.25C14 16.352 16.352 14 19.25 14H23.75C26.648 14 29 16.352 29 19.25V29.75ZM23.75 32C24.3467 32 24.919 31.7629 25.341 31.341C25.7629 30.919 26 30.3467 26 29.75V19.25C26 18.6533 25.7629 18.081 25.341 17.659C24.919 17.2371 24.3467 17 23.75 17H19.25C18.6533 17 18.081 17.2371 17.659 17.659C17.2371 18.081 17 18.6533 17 19.25V29.75C17 30.992 18.008 32 19.25 32H23.75ZM23.75 50C25.1424 50 26.4777 49.4469 27.4623 48.4623C28.4469 47.4777 29 46.1424 29 44.75V43.25C29 41.8576 28.4469 40.5223 27.4623 39.5377C26.4777 38.5531 25.1424 38 23.75 38H19.25C17.8576 38 16.5223 38.5531 15.5377 39.5377C14.5531 40.5223 14 41.8576 14 43.25V44.75C14 47.648 16.352 50 19.25 50H23.75ZM26 44.75C26 45.3467 25.7629 45.919 25.341 46.341C24.919 46.7629 24.3467 47 23.75 47H19.25C18.6533 47 18.081 46.7629 17.659 46.341C17.2371 45.919 17 45.3467 17 44.75V43.25C17 42.6533 17.2371 42.081 17.659 41.659C18.081 41.2371 18.6533 41 19.25 41H23.75C24.3467 41 24.919 41.2371 25.341 41.659C25.7629 42.081 26 42.6533 26 43.25V44.75ZM50 20.75C50 22.1424 49.4469 23.4777 48.4623 24.4623C47.4777 25.4469 46.1424 26 44.75 26H37.25C35.8576 26 34.5223 25.4469 33.5377 24.4623C32.5531 23.4777 32 22.1424 32 20.75V19.25C32 16.352 34.352 14 37.25 14H44.75C47.648 14 50 16.352 50 19.25V20.75ZM44.75 23C45.3467 23 45.919 22.7629 46.341 22.341C46.7629 21.919 47 21.3467 47 20.75V19.25C47 18.6533 46.7629 18.081 46.341 17.659C45.919 17.2371 45.3467 17 44.75 17H37.25C36.6533 17 36.081 17.2371 35.659 17.659C35.2371 18.081 35 18.6533 35 19.25V20.75C35 21.992 36.008 23 37.25 23H44.75Z" fill="#08272A" stroke="#08272A" stroke-width="0.375"/>
</svg>
