<svg width="40" height="40" viewBox="0 0 40 40" fill="none" xmlns="http://www.w3.org/2000/svg">
<path d="M26.925 14.3667C27.5697 14.3667 28.0923 13.8441 28.0923 13.1994C28.0923 12.5548 27.5697 12.0322 26.925 12.0322C26.2804 12.0322 25.7578 12.5548 25.7578 13.1994C25.7578 13.8441 26.2804 14.3667 26.925 14.3667Z" fill="white"/>
<path d="M8.95541 26.7301C7.20097 28.4873 6.37097 30.9301 6.74986 33.2234C9.04319 33.599 11.4843 32.7679 13.2404 31.014C14.9949 29.2568 15.8249 26.814 15.446 24.5206C13.1526 24.1451 10.7115 24.9762 8.95541 26.7301Z" fill="#FCEA2B"/>
<path d="M17.7627 25.466C17.6554 26.0025 17.3922 26.4953 17.006 26.8827C16.8177 27.0701 16.6035 27.2295 16.3699 27.356C17.5615 28.9879 18.4455 30.8235 18.9782 32.7727C19.3727 32.4279 19.7508 32.0635 20.1127 31.6794C21.1804 30.5433 22.0874 29.2663 22.8082 27.8838C23.5018 26.5434 24.0144 25.1169 24.3327 23.6416C22.261 24.7277 20.0149 25.351 17.7627 25.466Z" fill="#61B2E4"/>
<path d="M8.29073 19.8606C7.9074 20.2217 7.54259 20.5991 7.19629 20.9928C9.14698 21.5222 10.9847 22.4031 12.6191 23.5923C12.7452 23.3623 12.9024 23.1512 13.088 22.9656C13.4743 22.5806 13.9655 22.3178 14.5002 22.2101C14.6168 19.9601 15.2424 17.7156 16.3291 15.6467L16.3324 15.6406C14.8566 15.9591 13.4293 16.4715 12.088 17.1645C10.7053 17.886 9.42769 18.7931 8.29073 19.8606Z" fill="#92D3F5"/>
<path d="M19.3449 11.5261C16.4388 14.4428 14.6971 18.2839 14.4988 22.2111C14.9467 22.1204 15.41 22.1418 15.8477 22.2734C16.2853 22.405 16.6836 22.6428 17.0071 22.9655C17.3313 23.2903 17.5699 23.6904 17.7014 24.13C17.8329 24.5696 17.8532 25.035 17.7604 25.4844C21.6916 25.2839 25.5338 23.5383 28.4504 20.6289C32.1793 16.8939 33.9421 11.7028 33.136 6.82887C32.1645 6.67089 31.1794 6.61263 30.196 6.65498C26.2104 6.81721 22.3016 8.5722 19.3449 11.5261ZM25.0388 11.2316C25.5301 10.7404 26.1965 10.4644 26.8913 10.4644C27.5861 10.4644 28.2524 10.7404 28.7438 11.2316C28.9872 11.4747 29.1804 11.7634 29.3122 12.0812C29.444 12.399 29.5119 12.7396 29.512 13.0836C29.5121 13.4277 29.4444 13.7683 29.3128 14.0862C29.1812 14.4041 28.9882 14.6929 28.7449 14.9361C28.2494 15.4062 27.5894 15.6642 26.9065 15.6553C26.2236 15.6464 25.5711 15.3713 25.0881 14.8884C24.605 14.4056 24.3296 13.7533 24.3204 13.0703C24.3112 12.3874 24.5689 11.7279 25.0388 11.2322" fill="#EA5A47"/>
<path d="M14.7437 28.9094C14.2544 29.4579 13.6923 29.9367 13.0731 30.3328C11.1342 31.5678 8.78146 31.9072 6.71701 31.2511C6.63368 31.9155 6.64479 32.5794 6.75035 33.2233C9.04368 33.5989 11.4848 32.7678 13.2409 31.0133C13.8526 30.3981 14.3601 29.6876 14.7437 28.9094Z" fill="#F1B31C"/>
<path d="M14.5576 21.4928C14.539 21.7306 14.5264 21.9682 14.5198 22.2056C14.9675 22.1186 15.4297 22.1435 15.8655 22.2782C16.3013 22.4128 16.697 22.6529 17.0176 22.9773C17.3383 23.3017 17.5738 23.7002 17.7034 24.1375C17.833 24.5748 17.8525 25.0373 17.7603 25.4839C21.6909 25.2834 25.5326 23.5378 28.4492 20.6284C29.2769 19.7923 30.0166 18.8736 30.657 17.8867C29.9068 18.5693 29.0977 19.1843 28.2392 19.7245C24.0403 22.3412 18.9648 22.9978 14.5576 21.4928Z" fill="#D22F27"/>
<path d="M13.3547 26.9726C13.838 26.7293 14.3102 26.463 14.7713 26.1737C16.1343 25.3181 17.3737 24.2798 18.4547 23.0876L18.4558 23.0859C19.4983 21.9279 20.3825 20.6366 21.0852 19.2459C21.119 19.179 21.1388 19.1058 21.1436 19.0309C19.2552 18.6126 12.8958 24.7259 13.3547 26.9726Z" fill="#61B2E4"/>
<path d="M26.8916 16.3836C25.0716 16.3836 23.5911 14.9036 23.5911 13.0836C23.5911 11.2636 25.0716 9.78467 26.8916 9.78467C28.7116 9.78467 30.1922 11.2647 30.1922 13.0841C30.1922 14.9036 28.7116 16.3836 26.8916 16.3836ZM26.8916 10.8841C25.6783 10.8841 24.6916 11.8708 24.6916 13.0841C24.6916 14.2974 25.6783 15.2841 26.8916 15.2841C28.105 15.2841 29.0916 14.2969 29.0916 13.0841C29.0916 11.8713 28.105 10.8841 26.8916 10.8841Z" fill="black"/>
<path d="M11.4737 25.0351C10.5339 25.434 9.67903 26.0092 8.95541 26.7295C7.20097 28.4873 6.37097 30.9295 6.74986 33.2228C9.04319 33.5984 11.4843 32.7673 13.2404 31.0134C13.9613 30.2901 14.537 29.4354 14.9365 28.4956M8.29041 19.8606C7.90708 20.2217 7.54226 20.5991 7.19597 20.9928C9.14666 21.5222 10.9844 22.4031 12.6187 23.5923C12.7449 23.3623 12.9021 23.1512 13.0876 22.9656C13.474 22.5806 13.9651 22.3178 14.4999 22.2101C14.6165 19.9601 15.2421 17.7156 16.3287 15.6467L16.3321 15.6406C14.8562 15.9591 13.429 16.4715 12.0876 17.1645C10.7049 17.886 9.42737 18.7931 8.29041 19.8606ZM17.7626 25.4662C17.6554 26.0026 17.3922 26.4954 17.006 26.8828C16.8177 27.0702 16.6034 27.2296 16.3699 27.3562C17.5615 28.9881 18.4454 30.8237 18.9782 32.7728C19.3726 32.428 19.7508 32.0636 20.1126 31.6795C21.1804 30.5435 22.0874 29.2664 22.8082 27.884C23.5018 26.5436 24.0144 25.117 24.3326 23.6417C22.261 24.7278 20.0149 25.3512 17.7626 25.4662Z" stroke="black" stroke-width="1.08278" stroke-linecap="round" stroke-linejoin="round"/>
<path d="M17.6832 24.0807C17.8332 24.5729 17.8221 25.0207 17.7593 25.4835C21.6904 25.2824 25.5332 23.5368 28.4499 20.6268C32.1777 16.8929 33.941 11.7029 33.136 6.83015C28.2632 6.03237 23.076 7.79793 19.3454 11.5252C16.4388 14.4424 14.6966 18.2829 14.4988 22.2107C15.014 22.1086 15.5476 22.1546 16.0377 22.3435" stroke="black" stroke-width="1.08278" stroke-linecap="round" stroke-linejoin="round"/>
<path d="M20.5953 18.998C19.2476 19.679 17.996 20.5353 16.8731 21.5447C15.7177 22.5915 14.7113 23.7917 13.882 25.1119C13.6027 25.5569 13.3446 26.0148 13.1086 26.4842" stroke="black" stroke-width="1.08278" stroke-linecap="round" stroke-linejoin="round"/>
</svg>
