<svg width="40" height="40" viewBox="0 0 40 40" fill="none" xmlns="http://www.w3.org/2000/svg">
<path d="M37.3073 13.9903C35.404 13.0905 33.3946 12.4349 31.3268 12.0391C29.7724 11.7316 28.1974 11.5392 26.6146 11.4635C26.0692 10.0783 25.4169 8.73769 24.6634 7.45376C23.6623 5.60351 22.4332 3.88605 21.0049 2.34157C20.5581 1.92247 19.9686 1.68921 19.3561 1.68921C18.7435 1.68921 18.154 1.92247 17.7073 2.34157C16.2794 3.90073 15.0505 5.63102 14.0488 7.49279C13.3309 8.79328 12.6987 10.1392 12.1561 11.5221C10.6597 11.6023 9.17212 11.8013 7.70729 12.1172C5.63989 12.5025 3.62793 13.1415 1.71705 14.0196C1.1901 14.3255 0.797335 14.8182 0.616628 15.4001C0.435921 15.982 0.480469 16.6105 0.741439 17.1611C1.7659 18.9964 3.01449 20.6972 4.45851 22.2245C5.49014 23.3251 6.59161 24.3582 7.75607 25.3172C7.31442 26.8655 7.00438 28.4484 6.82924 30.0489C6.56968 32.1319 6.56968 34.2391 6.82924 36.3221C6.9436 36.926 7.28355 37.4638 7.78004 37.8262C8.27653 38.1886 8.89234 38.3484 9.50241 38.2733C11.5625 37.872 13.5648 37.2166 15.4634 36.3221C16.8076 35.6813 18.1109 34.958 19.3658 34.1562C20.618 34.9625 21.9216 35.686 23.2683 36.3221C25.1669 37.2166 27.1692 37.872 29.2292 38.2733C29.8393 38.3484 30.4551 38.1886 30.9516 37.8262C31.4481 37.4638 31.7881 36.926 31.9024 36.3221C32.162 34.2391 32.162 32.1319 31.9024 30.0489C31.7425 28.517 31.462 27.0001 31.0634 25.5123C32.3404 24.5108 33.5255 23.3974 34.6049 22.1855C36.0477 20.6549 37.2992 18.9547 38.3317 17.1221C38.5905 16.5675 38.6286 15.9354 38.4384 15.3538C38.2481 14.7722 37.8438 14.2847 37.3073 13.9903Z" fill="#FFE236" stroke="#231F20" stroke-width="0.97561" stroke-miterlimit="10"/>
<path d="M20.9951 6.18555C21.932 7.49426 22.7421 8.88917 23.4146 10.3514" stroke="white" stroke-width="0.97561" stroke-miterlimit="10" stroke-linecap="round"/>
</svg>
