<svg width="40" height="40" viewBox="0 0 40 40" fill="none" xmlns="http://www.w3.org/2000/svg">
<path opacity="0.15" d="M5.83325 36.25C5.83325 36.5815 7.32581 36.8995 9.98257 37.1339C12.6393 37.3683 16.2427 37.5 19.9999 37.5C23.7572 37.5 27.3605 37.3683 30.0173 37.1339C32.674 36.8995 34.1666 36.5815 34.1666 36.25C34.1666 35.9185 32.674 35.6005 30.0173 35.3661C27.3605 35.1317 23.7572 35 19.9999 35C16.2427 35 12.6393 35.1317 9.98257 35.3661C7.32581 35.6005 5.83325 35.9185 5.83325 36.25Z" fill="#45413C"/>
<path d="M15.8333 20.4168C14.3333 18.9751 13.0417 15.1918 12.0583 12.3668C12.0291 12.2864 11.9759 12.2169 11.9058 12.1677C11.8357 12.1186 11.7522 12.0923 11.6667 12.0923C11.5811 12.0923 11.4976 12.1186 11.4275 12.1677C11.3574 12.2169 11.3042 12.2864 11.275 12.3668C10.2917 15.1918 9 18.9751 7.5 20.4168H15.8333ZM24.1667 20.4168C25.6667 18.9751 26.9583 15.1918 27.9417 12.3668C27.9709 12.2864 28.0241 12.2169 28.0942 12.1677C28.1643 12.1186 28.2478 12.0923 28.3333 12.0923C28.4189 12.0923 28.5024 12.1186 28.5725 12.1677C28.6426 12.2169 28.6958 12.2864 28.725 12.3668C29.7083 15.1918 31 18.9751 32.5 20.4168H24.1667Z" fill="#EBCB00" stroke="#45413C" stroke-width="0.833333" stroke-linecap="round" stroke-linejoin="round"/>
<path d="M19.6167 9.76667C19.6456 9.68818 19.6978 9.62042 19.7663 9.57256C19.8349 9.52469 19.9165 9.49902 20.0001 9.49902C20.0837 9.49902 20.1653 9.52469 20.2338 9.57256C20.3024 9.62042 20.3546 9.68818 20.3834 9.76667C21.5001 12.6083 24.8501 20.4167 27.8834 20.4167C30.5251 20.4167 33.1751 16.6833 34.5001 14.4833C34.5519 14.408 34.6267 14.3514 34.7133 14.3219C34.7998 14.2925 34.8936 14.2917 34.9807 14.3198C35.0677 14.3479 35.1433 14.4033 35.1964 14.4778C35.2494 14.5523 35.277 14.6419 35.2751 14.7333L34.5834 26.6667C34.5834 29.6583 28.0501 32.0833 20.0001 32.0833C11.9501 32.0833 5.41675 29.6583 5.41675 26.6667L4.69175 14.7333C4.6898 14.6419 4.7174 14.5523 4.77044 14.4778C4.82348 14.4033 4.89914 14.3479 4.98617 14.3198C5.07321 14.2917 5.16698 14.2925 5.25356 14.3219C5.34013 14.3514 5.4149 14.408 5.46675 14.4833C6.79175 16.6667 9.44175 20.4167 12.0834 20.4167C15.1501 20.4167 18.5001 12.6083 19.6167 9.76667Z" fill="#FFE500"/>
<path d="M10.325 30.7167L23.9833 17.0583C22.5599 14.7446 21.3547 12.3035 20.3833 9.76667C20.3545 9.68818 20.3023 9.62042 20.2337 9.57256C20.1652 9.52469 20.0836 9.49902 20 9.49902C19.9163 9.49902 19.8347 9.52469 19.7662 9.57256C19.6976 9.62042 19.6454 9.68818 19.6166 9.76667C18.5 12.6083 15.1499 20.4167 12.1166 20.4167C9.47495 20.4167 6.82495 16.6833 5.49995 14.4833C5.4481 14.408 5.37334 14.3514 5.28676 14.3219C5.20018 14.2925 5.10641 14.2917 5.01938 14.3198C4.93234 14.3479 4.85668 14.4033 4.80364 14.4778C4.7506 14.5523 4.723 14.6419 4.72495 14.7333L5.41662 26.6667C5.41662 28.275 7.32495 29.7167 10.325 30.7167Z" fill="#FFF48C"/>
<path d="M19.6167 9.76667C19.6456 9.68818 19.6978 9.62042 19.7663 9.57256C19.8349 9.52469 19.9165 9.49902 20.0001 9.49902C20.0837 9.49902 20.1653 9.52469 20.2338 9.57256C20.3024 9.62042 20.3546 9.68818 20.3834 9.76667C21.5001 12.6083 24.8501 20.4167 27.8834 20.4167C30.5251 20.4167 33.1751 16.6833 34.5001 14.4833C34.5519 14.408 34.6267 14.3514 34.7133 14.3219C34.7998 14.2925 34.8936 14.2917 34.9807 14.3198C35.0677 14.3479 35.1433 14.4033 35.1964 14.4778C35.2494 14.5523 35.277 14.6419 35.2751 14.7333L34.5834 26.6667C34.5834 29.6583 28.0501 32.0833 20.0001 32.0833C11.9501 32.0833 5.41675 29.6583 5.41675 26.6667L4.69175 14.7333C4.6898 14.6419 4.7174 14.5523 4.77044 14.4778C4.82348 14.4033 4.89914 14.3479 4.98617 14.3198C5.07321 14.2917 5.16698 14.2925 5.25356 14.3219C5.34013 14.3514 5.4149 14.408 5.46675 14.4833C6.79175 16.6667 9.44175 20.4167 12.0834 20.4167C15.1501 20.4167 18.5001 12.6083 19.6167 9.76667Z" stroke="#45413C" stroke-width="0.833333" stroke-linecap="round" stroke-linejoin="round"/>
<path d="M22.9166 23.3334C22.9166 22.5599 22.6093 21.818 22.0623 21.271C21.5153 20.724 20.7735 20.4167 19.9999 20.4167C19.2264 20.4167 18.4845 20.724 17.9375 21.271C17.3905 21.818 17.0833 22.5599 17.0833 23.3334V25.0001C17.0833 25.7736 17.3905 26.5155 17.9375 27.0625C18.4845 27.6095 19.2264 27.9167 19.9999 27.9167C20.7735 27.9167 21.5153 27.6095 22.0623 27.0625C22.6093 26.5155 22.9166 25.7736 22.9166 25.0001V23.3334Z" fill="#FF6242"/>
<path d="M19.9999 26.6667C19.2264 26.6667 18.4845 26.3594 17.9375 25.8124C17.3905 25.2654 17.0833 24.5235 17.0833 23.75V25C17.0833 25.7735 17.3905 26.5154 17.9375 27.0624C18.4845 27.6094 19.2264 27.9167 19.9999 27.9167C20.7735 27.9167 21.5153 27.6094 22.0623 27.0624C22.6093 26.5154 22.9166 25.7735 22.9166 25V23.75C22.9166 24.5235 22.6093 25.2654 22.0623 25.8124C21.5153 26.3594 20.7735 26.6667 19.9999 26.6667Z" fill="#E04122"/>
<path d="M20 20.4167C19.2265 20.4167 18.4846 20.724 17.9376 21.271C17.3906 21.818 17.0833 22.5599 17.0833 23.3334V25.0001C17.079 25.0695 17.079 25.139 17.0833 25.2084C17.1387 24.4794 17.4674 23.7982 18.0036 23.3012C18.5398 22.8042 19.2439 22.5281 19.975 22.5281C20.7061 22.5281 21.4102 22.8042 21.9464 23.3012C22.4826 23.7982 22.8113 24.4794 22.8667 25.2084C22.871 25.139 22.871 25.0695 22.8667 25.0001V23.3334C22.8668 22.5685 22.5664 21.8341 22.0302 21.2885C21.4939 20.7429 20.7649 20.4299 20 20.4167Z" fill="#FF866E"/>
<path d="M22.9166 23.3334C22.9166 22.5599 22.6093 21.818 22.0623 21.271C21.5153 20.724 20.7735 20.4167 19.9999 20.4167C19.2264 20.4167 18.4845 20.724 17.9375 21.271C17.3905 21.818 17.0833 22.5599 17.0833 23.3334V25.0001C17.0833 25.7736 17.3905 26.5155 17.9375 27.0625C18.4845 27.6095 19.2264 27.9167 19.9999 27.9167C20.7735 27.9167 21.5153 27.6095 22.0623 27.0625C22.6093 26.5155 22.9166 25.7736 22.9166 25.0001V23.3334Z" stroke="#45413C" stroke-width="0.833333" stroke-linecap="round" stroke-linejoin="round"/>
<path d="M27.9167 24.5834C27.9167 25.0254 28.0923 25.4494 28.4048 25.7619C28.7174 26.0745 29.1413 26.2501 29.5833 26.2501C30.0254 26.2501 30.4493 26.0745 30.7618 25.7619C31.0744 25.4494 31.25 25.0254 31.25 24.5834C31.25 24.1414 31.0744 23.7175 30.7618 23.4049C30.4493 23.0923 30.0254 22.9167 29.5833 22.9167C29.1413 22.9167 28.7174 23.0923 28.4048 23.4049C28.0923 23.7175 27.9167 24.1414 27.9167 24.5834ZM8.75 24.5834C8.75 25.0254 8.9256 25.4494 9.23816 25.7619C9.55072 26.0745 9.97464 26.2501 10.4167 26.2501C10.8587 26.2501 11.2826 26.0745 11.5952 25.7619C11.9077 25.4494 12.0833 25.0254 12.0833 24.5834C12.0833 24.1414 11.9077 23.7175 11.5952 23.4049C11.2826 23.0923 10.8587 22.9167 10.4167 22.9167C9.97464 22.9167 9.55072 23.0923 9.23816 23.4049C8.9256 23.7175 8.75 24.1414 8.75 24.5834Z" fill="#FF6242" stroke="#45413C" stroke-width="0.833333" stroke-linecap="round" stroke-linejoin="round"/>
<path d="M5.41675 30.8334C5.41675 33.8251 11.9501 36.2501 20.0001 36.2501C28.0501 36.2501 34.5834 33.8251 34.5834 30.8334V26.6667C34.5834 29.6584 28.0501 32.0834 20.0001 32.0834C11.9501 32.0834 5.41675 29.6584 5.41675 26.6667V30.8334Z" fill="#C0DCEB"/>
<path d="M20.0001 32.0834C11.9501 32.0834 5.41675 29.6584 5.41675 26.6667V28.7501C5.41675 31.7417 11.9501 34.1667 20.0001 34.1667C28.0501 34.1667 34.5834 31.7417 34.5834 28.7501V26.6667C34.5834 29.6584 28.0501 32.0834 20.0001 32.0834Z" fill="#E8F4FA"/>
<path d="M5.41675 30.8334C5.41675 33.8251 11.9501 36.2501 20.0001 36.2501C28.0501 36.2501 34.5834 33.8251 34.5834 30.8334V26.6667C34.5834 29.6584 28.0501 32.0834 20.0001 32.0834C11.9501 32.0834 5.41675 29.6584 5.41675 26.6667V30.8334Z" stroke="#45413C" stroke-width="0.833333" stroke-linecap="round" stroke-linejoin="round"/>
<path d="M9.58325 10.4166C9.58325 10.9691 9.80275 11.499 10.1934 11.8897C10.5841 12.2804 11.1141 12.4999 11.6666 12.4999C12.2191 12.4999 12.749 12.2804 13.1397 11.8897C13.5304 11.499 13.7499 10.9691 13.7499 10.4166C13.7499 9.86405 13.5304 9.33415 13.1397 8.94345C12.749 8.55275 12.2191 8.33325 11.6666 8.33325C11.1141 8.33325 10.5841 8.55275 10.1934 8.94345C9.80275 9.33415 9.58325 9.86405 9.58325 10.4166Z" fill="#FF6242"/>
<path d="M10.1918 11.8918C9.80058 11.5006 9.58081 10.97 9.58081 10.4168C9.58081 9.86354 9.80058 9.33297 10.1918 8.94178C10.583 8.55058 11.1135 8.33081 11.6668 8.33081C12.22 8.33081 12.7506 8.55058 13.1418 8.94177L10.1918 11.8918Z" fill="#FF866E"/>
<path d="M9.58325 10.4166C9.58325 10.9691 9.80275 11.499 10.1934 11.8897C10.5841 12.2804 11.1141 12.4999 11.6666 12.4999C12.2191 12.4999 12.749 12.2804 13.1397 11.8897C13.5304 11.499 13.7499 10.9691 13.7499 10.4166C13.7499 9.86405 13.5304 9.33415 13.1397 8.94345C12.749 8.55275 12.2191 8.33325 11.6666 8.33325C11.1141 8.33325 10.5841 8.55275 10.1934 8.94345C9.80275 9.33415 9.58325 9.86405 9.58325 10.4166Z" stroke="#45413C" stroke-width="0.833333" stroke-linecap="round" stroke-linejoin="round"/>
<path d="M26.25 10.4166C26.25 10.9691 26.4695 11.499 26.8602 11.8897C27.2509 12.2804 27.7808 12.4999 28.3333 12.4999C28.8859 12.4999 29.4158 12.2804 29.8065 11.8897C30.1972 11.499 30.4167 10.9691 30.4167 10.4166C30.4167 9.86405 30.1972 9.33415 29.8065 8.94345C29.4158 8.55275 28.8859 8.33325 28.3333 8.33325C27.7808 8.33325 27.2509 8.55275 26.8602 8.94345C26.4695 9.33415 26.25 9.86405 26.25 10.4166Z" fill="#FF6242"/>
<path d="M26.8585 11.8918C26.4673 11.5006 26.2476 10.97 26.2476 10.4168C26.2476 10.1428 26.3015 9.87159 26.4063 9.61851C26.5112 9.36543 26.6648 9.13547 26.8585 8.94177C27.0522 8.74808 27.2822 8.59442 27.5353 8.48959C27.7883 8.38477 28.0596 8.33081 28.3335 8.33081C28.8868 8.33081 29.4173 8.55058 29.8085 8.94177L26.8585 11.8918Z" fill="#FF866E"/>
<path d="M26.25 10.4166C26.25 10.9691 26.4695 11.499 26.8602 11.8897C27.2509 12.2804 27.7808 12.4999 28.3333 12.4999C28.8859 12.4999 29.4158 12.2804 29.8065 11.8897C30.1972 11.499 30.4167 10.9691 30.4167 10.4166C30.4167 9.86405 30.1972 9.33415 29.8065 8.94345C29.4158 8.55275 28.8859 8.33325 28.3333 8.33325C27.7808 8.33325 27.2509 8.55275 26.8602 8.94345C26.4695 9.33415 26.25 9.86405 26.25 10.4166Z" stroke="#45413C" stroke-width="0.833333" stroke-linecap="round" stroke-linejoin="round"/>
<path d="M2.08325 12.0833C2.08325 12.4116 2.14792 12.7366 2.27355 13.04C2.39919 13.3433 2.58334 13.6189 2.81549 13.851C3.04763 14.0832 3.32323 14.2673 3.62654 14.393C3.92986 14.5186 4.25495 14.5833 4.58325 14.5833C4.91156 14.5833 5.23665 14.5186 5.53996 14.393C5.84327 14.2673 6.11887 14.0832 6.35102 13.851C6.58317 13.6189 6.76731 13.3433 6.89295 13.04C7.01859 12.7366 7.08325 12.4116 7.08325 12.0833C7.08325 11.7549 7.01859 11.4299 6.89295 11.1265C6.76731 10.8232 6.58317 10.5476 6.35102 10.3155C6.11887 10.0833 5.84327 9.89919 5.53996 9.77355C5.23665 9.64792 4.91156 9.58325 4.58325 9.58325C4.25495 9.58325 3.92986 9.64792 3.62654 9.77355C3.32323 9.89919 3.04763 10.0833 2.81549 10.3155C2.58334 10.5476 2.39919 10.8232 2.27355 11.1265C2.14792 11.4299 2.08325 11.7549 2.08325 12.0833Z" fill="#FF6242"/>
<path d="M2.81648 13.8498C2.37488 13.3759 2.13447 12.7491 2.1459 12.1014C2.15732 11.4537 2.4197 10.8358 2.87774 10.3777C3.33578 9.9197 3.95373 9.65732 4.60141 9.6459C5.24908 9.63447 5.8759 9.87488 6.34981 10.3165L2.81648 13.8498Z" fill="#FF866E"/>
<path d="M2.08325 12.0833C2.08325 12.4116 2.14792 12.7366 2.27355 13.04C2.39919 13.3433 2.58334 13.6189 2.81549 13.851C3.04763 14.0832 3.32323 14.2673 3.62654 14.393C3.92986 14.5186 4.25495 14.5833 4.58325 14.5833C4.91156 14.5833 5.23665 14.5186 5.53996 14.393C5.84327 14.2673 6.11887 14.0832 6.35102 13.851C6.58317 13.6189 6.76731 13.3433 6.89295 13.04C7.01859 12.7366 7.08325 12.4116 7.08325 12.0833C7.08325 11.7549 7.01859 11.4299 6.89295 11.1265C6.76731 10.8232 6.58317 10.5476 6.35102 10.3155C6.11887 10.0833 5.84327 9.89919 5.53996 9.77355C5.23665 9.64792 4.91156 9.58325 4.58325 9.58325C4.25495 9.58325 3.92986 9.64792 3.62654 9.77355C3.32323 9.89919 3.04763 10.0833 2.81549 10.3155C2.58334 10.5476 2.39919 10.8232 2.27355 11.1265C2.14792 11.4299 2.08325 11.7549 2.08325 12.0833Z" stroke="#45413C" stroke-width="0.833333" stroke-linecap="round" stroke-linejoin="round"/>
<path d="M17.5 7.91675C17.5 8.57979 17.7634 9.21567 18.2322 9.68451C18.7011 10.1534 19.337 10.4167 20 10.4167C20.663 10.4167 21.2989 10.1534 21.7678 9.68451C22.2366 9.21567 22.5 8.57979 22.5 7.91675C22.5 7.25371 22.2366 6.61782 21.7678 6.14898C21.2989 5.68014 20.663 5.41675 20 5.41675C19.337 5.41675 18.7011 5.68014 18.2322 6.14898C17.7634 6.61782 17.5 7.25371 17.5 7.91675Z" fill="#FF6242"/>
<path d="M18.2332 9.68331C17.7916 9.20939 17.5512 8.58257 17.5626 7.9349C17.5741 7.28723 17.8364 6.66928 18.2945 6.21124C18.7525 5.75319 19.3705 5.49082 20.0182 5.47939C20.6658 5.46797 21.2926 5.70838 21.7666 6.14998L18.2332 9.68331Z" fill="#FF866E"/>
<path d="M17.5 7.91675C17.5 8.57979 17.7634 9.21567 18.2322 9.68452C18.7011 10.1534 19.337 10.4167 20 10.4167C20.663 10.4167 21.2989 10.1534 21.7678 9.68452C22.2366 9.21567 22.5 8.57979 22.5 7.91675C22.5 7.25371 22.2366 6.61782 21.7678 6.14898C21.2989 5.68014 20.663 5.41675 20 5.41675C19.337 5.41675 18.7011 5.68014 18.2322 6.14898C17.7634 6.61782 17.5 7.25371 17.5 7.91675Z" stroke="#45413C" stroke-width="0.833333" stroke-linecap="round" stroke-linejoin="round"/>
<path d="M32.9167 12.0833C32.9167 12.7463 33.1801 13.3822 33.649 13.851C34.1178 14.3199 34.7537 14.5833 35.4167 14.5833C36.0798 14.5833 36.7157 14.3199 37.1845 13.851C37.6534 13.3822 37.9167 12.7463 37.9167 12.0833C37.9167 11.4202 37.6534 10.7843 37.1845 10.3155C36.7157 9.84664 36.0798 9.58325 35.4167 9.58325C34.7537 9.58325 34.1178 9.84664 33.649 10.3155C33.1801 10.7843 32.9167 11.4202 32.9167 12.0833Z" fill="#FF6242"/>
<path d="M33.6502 13.85C33.4046 13.6212 33.2076 13.3451 33.0709 13.0385C32.9343 12.7318 32.8608 12.4008 32.8549 12.0651C32.849 11.7294 32.9107 11.396 33.0364 11.0847C33.1622 10.7734 33.3493 10.4906 33.5867 10.2532C33.8241 10.0158 34.1069 9.82868 34.4182 9.70295C34.7295 9.57721 35.0629 9.51546 35.3986 9.52139C35.7343 9.52731 36.0653 9.60078 36.372 9.73742C36.6786 9.87406 36.9546 10.0711 37.1835 10.3167L33.6502 13.85Z" fill="#FF866E"/>
<path d="M32.9167 12.0833C32.9167 12.7463 33.1801 13.3822 33.649 13.851C34.1178 14.3199 34.7537 14.5833 35.4167 14.5833C36.0798 14.5833 36.7157 14.3199 37.1845 13.851C37.6534 13.3822 37.9167 12.7463 37.9167 12.0833C37.9167 11.4202 37.6534 10.7843 37.1845 10.3155C36.7157 9.84664 36.0798 9.58325 35.4167 9.58325C34.7537 9.58325 34.1178 9.84664 33.649 10.3155C33.1801 10.7843 32.9167 11.4202 32.9167 12.0833Z" stroke="#45413C" stroke-width="0.833333" stroke-linecap="round" stroke-linejoin="round"/>
</svg>
