<svg width="88" height="88" viewBox="0 0 88 88" fill="none" xmlns="http://www.w3.org/2000/svg">
<g filter="url(#filter0_di_109_717)">
<rect x="4" y="2" width="80" height="80" rx="11.4286" fill="#F0F0F0" shape-rendering="crispEdges"/>
<rect x="9.71436" y="7.71429" width="68.5714" height="68.5714" rx="11.4286" fill="#FEFEFE"/>
<g clip-path="url(#clip0_109_717)">
<path d="M56.1429 19.1429H31.8572C25.9399 19.1429 21.1429 23.9398 21.1429 29.8572V54.1429C21.1429 60.0602 25.9399 64.8572 31.8572 64.8572H56.1429C62.0603 64.8572 66.8572 60.0602 66.8572 54.1429V29.8572C66.8572 23.9398 62.0603 19.1429 56.1429 19.1429Z" fill="url(#paint0_radial_109_717)"/>
<path d="M56.1429 19.1429H31.8572C25.9399 19.1429 21.1429 23.9398 21.1429 29.8572V54.1429C21.1429 60.0602 25.9399 64.8572 31.8572 64.8572H56.1429C62.0603 64.8572 66.8572 60.0602 66.8572 54.1429V29.8572C66.8572 23.9398 62.0603 19.1429 56.1429 19.1429Z" fill="url(#paint1_radial_109_717)"/>
<path d="M44.0035 24.1423C39.1539 24.1423 38.5451 24.1635 36.6405 24.2501C34.7394 24.3373 33.4417 24.6382 32.3064 25.0798C31.1317 25.5358 30.1355 26.146 29.143 27.1389C28.1496 28.1316 27.5394 29.1278 27.0819 30.3019C26.6391 31.4376 26.3378 32.7358 26.2523 34.636C26.1671 36.5408 26.1448 37.1498 26.1448 41.9996C26.1448 46.8494 26.1662 47.4562 26.2526 49.3608C26.3401 51.2619 26.641 52.5596 27.0823 53.6949C27.5387 54.8696 28.1489 55.8658 29.1417 56.8583C30.1341 57.8517 31.1303 58.4633 32.3041 58.9194C33.4403 59.361 34.7382 59.6619 36.6389 59.7491C38.5437 59.8357 39.1519 59.8569 44.0014 59.8569C48.8516 59.8569 49.4583 59.8357 51.363 59.7491C53.2641 59.6619 54.5632 59.361 55.6994 58.9194C56.8735 58.4633 57.8683 57.8517 58.8605 56.8583C59.8539 55.8658 60.4639 54.8696 60.9216 53.6955C61.3605 52.5596 61.6619 51.2616 61.7512 49.3612C61.8367 47.4566 61.8591 46.8494 61.8591 41.9996C61.8591 37.1498 61.8367 36.5412 61.7512 34.6364C61.6619 32.7353 61.3605 31.4378 60.9216 30.3025C60.4639 29.1278 59.8539 28.1316 58.8605 27.1389C57.8673 26.1457 56.8739 25.5355 55.6983 25.08C54.56 24.6382 53.2616 24.3371 51.3605 24.2501C49.4557 24.1635 48.8492 24.1423 43.998 24.1423H44.0035ZM42.4016 27.3603C42.8771 27.3596 43.4076 27.3603 44.0035 27.3603C48.7716 27.3603 49.3366 27.3775 51.2194 27.463C52.9605 27.5426 53.9055 27.8335 54.535 28.078C55.3683 28.4016 55.9625 28.7885 56.5871 29.4137C57.2121 30.0387 57.5989 30.6339 57.9233 31.4673C58.1678 32.0958 58.4591 33.0408 58.5383 34.7819C58.6239 36.6644 58.6425 37.2298 58.6425 41.9955C58.6425 46.7612 58.6239 47.3267 58.5383 49.2091C58.4587 50.9501 58.1678 51.8951 57.9233 52.5239C57.5998 53.3573 57.2121 53.9507 56.5871 54.5753C55.9621 55.2003 55.3687 55.5871 54.535 55.9108C53.9062 56.1564 52.9605 56.4466 51.2194 56.5262C49.3369 56.6117 48.7716 56.6303 44.0035 56.6303C39.2353 56.6303 38.6701 56.6117 36.7878 56.5262C35.0467 56.4458 34.1017 56.1549 33.4717 55.9105C32.6385 55.5867 32.0432 55.2 31.4182 54.575C30.7932 53.95 30.4064 53.3562 30.0819 52.5224C29.8375 51.8937 29.5462 50.9487 29.4669 49.2076C29.3814 47.3251 29.3642 46.7598 29.3642 41.991C29.3642 37.2223 29.3814 36.66 29.4669 34.7775C29.5466 33.0364 29.8375 32.0914 30.0819 31.4619C30.4057 30.6285 30.7932 30.0333 31.4183 29.4083C32.0435 28.7833 32.6385 28.3964 33.4719 28.0721C34.1014 27.8266 35.0467 27.5364 36.7878 27.4564C38.4351 27.3819 39.0735 27.3596 42.4016 27.3558V27.3603ZM53.5357 30.3253C52.3526 30.3253 51.3928 31.2842 51.3928 32.4675C51.3928 33.6505 52.3526 34.6103 53.5357 34.6103C54.7187 34.6103 55.6785 33.6505 55.6785 32.4675C55.6785 31.2844 54.7187 30.3246 53.5357 30.3246V30.3253ZM44.0035 32.8291C38.9392 32.8291 34.8332 36.9351 34.8332 41.9996C34.8332 47.0641 38.9392 51.1682 44.0035 51.1682C49.068 51.1682 53.1726 47.0641 53.1726 41.9996C53.1726 36.9353 49.0676 32.8291 44.0032 32.8291H44.0035ZM44.0035 36.0471C47.2908 36.0471 49.956 38.7119 49.956 41.9996C49.956 45.2869 47.2908 47.9521 44.0035 47.9521C40.7162 47.9521 38.0512 45.2869 38.0512 41.9996C38.0512 38.7119 40.716 36.0471 44.0035 36.0471Z" fill="white"/>
</g>
</g>
<defs>
<filter id="filter0_di_109_717" x="0" y="0" width="88" height="88" filterUnits="userSpaceOnUse" color-interpolation-filters="sRGB">
<feFlood flood-opacity="0" result="BackgroundImageFix"/>
<feColorMatrix in="SourceAlpha" type="matrix" values="0 0 0 0 0 0 0 0 0 0 0 0 0 0 0 0 0 0 127 0" result="hardAlpha"/>
<feOffset dy="2"/>
<feGaussianBlur stdDeviation="2"/>
<feComposite in2="hardAlpha" operator="out"/>
<feColorMatrix type="matrix" values="0 0 0 0 0 0 0 0 0 0 0 0 0 0 0 0 0 0 0.12 0"/>
<feBlend mode="normal" in2="BackgroundImageFix" result="effect1_dropShadow_109_717"/>
<feBlend mode="normal" in="SourceGraphic" in2="effect1_dropShadow_109_717" result="shape"/>
<feColorMatrix in="SourceAlpha" type="matrix" values="0 0 0 0 0 0 0 0 0 0 0 0 0 0 0 0 0 0 127 0" result="hardAlpha"/>
<feOffset dy="1"/>
<feGaussianBlur stdDeviation="1"/>
<feComposite in2="hardAlpha" operator="arithmetic" k2="-1" k3="1"/>
<feColorMatrix type="matrix" values="0 0 0 0 0 0 0 0 0 0 0 0 0 0 0 0 0 0 0.25 0"/>
<feBlend mode="normal" in2="shape" result="effect2_innerShadow_109_717"/>
</filter>
<radialGradient id="paint0_radial_109_717" cx="0" cy="0" r="1" gradientUnits="userSpaceOnUse" gradientTransform="translate(33.2858 68.3781) rotate(-90) scale(45.3063 42.1384)">
<stop stop-color="#FFDD55"/>
<stop offset="0.1" stop-color="#FFDD55"/>
<stop offset="0.5" stop-color="#FF543E"/>
<stop offset="1" stop-color="#C837AB"/>
</radialGradient>
<radialGradient id="paint1_radial_109_717" cx="0" cy="0" r="1" gradientUnits="userSpaceOnUse" gradientTransform="translate(13.4856 22.4359) rotate(78.681) scale(20.2521 83.48)">
<stop stop-color="#3771C8"/>
<stop offset="0.128" stop-color="#3771C8"/>
<stop offset="1" stop-color="#6600FF" stop-opacity="0"/>
</radialGradient>
<clipPath id="clip0_109_717">
<rect width="45.7143" height="45.7143" fill="white" transform="translate(21.1429 19.1429)"/>
</clipPath>
</defs>
</svg>
