<svg width="83" height="88" viewBox="0 0 83 88" fill="none" xmlns="http://www.w3.org/2000/svg">
<g filter="url(#filter0_di_109_742)">
<rect x="4" y="2" width="74.6404" height="80" rx="11.4286" fill="#F0F0F0" shape-rendering="crispEdges"/>
<rect x="9.71411" y="7.71429" width="63.2118" height="68.5714" rx="11.4286" fill="#FEFEFE"/>
<g clip-path="url(#clip0_109_742)">
<path d="M51.0484 35.6032C53.9927 37.7069 57.5997 38.9446 61.4953 38.9446V31.4522C60.758 31.4525 60.0227 31.3756 59.3014 31.2227V37.1203C55.406 37.1203 51.7995 35.8827 48.8546 33.7793V49.0693C48.8546 56.7182 42.6507 62.9183 34.9984 62.9183C32.1432 62.9183 29.4892 62.0556 27.2847 60.5759C29.8008 63.1474 33.3098 64.7425 37.1917 64.7425C44.8446 64.7425 51.0487 58.5424 51.0487 50.8931V35.6032H51.0484ZM53.755 28.0443C52.2502 26.4013 51.2621 24.2779 51.0484 21.9304V20.9668H48.9693C49.4927 23.9504 51.2779 26.4993 53.755 28.0443ZM32.1247 54.7065C31.2839 53.6049 30.8295 52.257 30.8316 50.8712C30.8316 47.3729 33.6692 44.5365 37.1701 44.5365C37.8225 44.5361 38.471 44.6362 39.0928 44.8333V37.1733C38.3661 37.0738 37.6328 37.0314 36.8998 37.047V43.0091C36.2776 42.812 35.6288 42.7119 34.9762 42.7125C31.4754 42.7125 28.638 45.5486 28.638 49.0473C28.638 51.5213 30.0562 53.6631 32.1247 54.7065Z" fill="#FF004F"/>
<path d="M48.8549 33.7791C51.8 35.8826 55.4062 37.1202 59.3017 37.1202V31.2226C57.1273 30.7596 55.2024 29.624 53.7552 28.0443C51.2779 26.4992 49.493 23.9502 48.9697 20.9668H43.5087V50.8928C43.4963 54.3816 40.6635 57.2064 37.1702 57.2064C35.1118 57.2064 33.2829 56.2258 32.1247 54.7063C30.0566 53.6631 28.6382 51.5211 28.6382 49.0475C28.6382 45.5491 31.4756 42.7126 34.9764 42.7126C35.6471 42.7126 36.2936 42.817 36.9 43.0093V37.0472C29.382 37.2025 23.3359 43.342 23.3359 50.8929C23.3359 54.6623 24.8415 58.0794 27.2852 60.5762C29.4897 62.0556 32.1435 62.9186 34.9989 62.9186C42.6513 62.9186 48.8551 56.718 48.8551 49.0693L48.8549 33.7791Z" fill="black"/>
<path d="M59.3024 31.2225V29.6282C57.3416 29.631 55.4195 29.0822 53.7559 28.0444C55.2285 29.6558 57.1676 30.767 59.3024 31.2228M48.9702 20.9667C48.9204 20.6817 48.8821 20.3947 48.8555 20.1065V19.1429H41.3151V49.0692C41.3031 52.5577 38.4704 55.3825 34.9769 55.3825C33.9865 55.384 33.0097 55.1525 32.1253 54.7067C33.2834 56.2258 35.1123 57.2063 37.1707 57.2063C40.6639 57.2063 43.4969 54.3818 43.5092 50.893V20.9669L48.9702 20.9667ZM36.901 37.0471V35.3495C36.2709 35.2635 35.6357 35.2204 34.9998 35.2206C27.3466 35.2206 21.1428 41.421 21.1428 49.0692C21.1428 53.8643 23.581 58.0902 27.286 60.5759C24.8424 58.0793 23.3368 54.6621 23.3368 50.8929C23.3368 43.3421 29.3827 37.2024 36.901 37.0471Z" fill="#00F2EA"/>
</g>
</g>
<defs>
<filter id="filter0_di_109_742" x="0" y="0" width="82.6404" height="88" filterUnits="userSpaceOnUse" color-interpolation-filters="sRGB">
<feFlood flood-opacity="0" result="BackgroundImageFix"/>
<feColorMatrix in="SourceAlpha" type="matrix" values="0 0 0 0 0 0 0 0 0 0 0 0 0 0 0 0 0 0 127 0" result="hardAlpha"/>
<feOffset dy="2"/>
<feGaussianBlur stdDeviation="2"/>
<feComposite in2="hardAlpha" operator="out"/>
<feColorMatrix type="matrix" values="0 0 0 0 0 0 0 0 0 0 0 0 0 0 0 0 0 0 0.12 0"/>
<feBlend mode="normal" in2="BackgroundImageFix" result="effect1_dropShadow_109_742"/>
<feBlend mode="normal" in="SourceGraphic" in2="effect1_dropShadow_109_742" result="shape"/>
<feColorMatrix in="SourceAlpha" type="matrix" values="0 0 0 0 0 0 0 0 0 0 0 0 0 0 0 0 0 0 127 0" result="hardAlpha"/>
<feOffset dy="1"/>
<feGaussianBlur stdDeviation="1"/>
<feComposite in2="hardAlpha" operator="arithmetic" k2="-1" k3="1"/>
<feColorMatrix type="matrix" values="0 0 0 0 0 0 0 0 0 0 0 0 0 0 0 0 0 0 0.25 0"/>
<feBlend mode="normal" in2="shape" result="effect2_innerShadow_109_742"/>
</filter>
<clipPath id="clip0_109_742">
<rect width="40.3547" height="45.7143" fill="white" transform="translate(21.1428 19.1429)"/>
</clipPath>
</defs>
</svg>
