<svg width="88" height="88" viewBox="0 0 88 88" fill="none" xmlns="http://www.w3.org/2000/svg">
<g filter="url(#filter0_di_109_724)">
<rect x="4" y="2" width="80" height="80" rx="11.4286" fill="#F0F0F0" shape-rendering="crispEdges"/>
<rect x="9.71436" y="7.71429" width="68.5714" height="68.5714" rx="11.4286" fill="#FEFEFE"/>
<path d="M46.4408 26.5132L46.4289 33.3634L46.4167 40.2136L45.8532 38.6234L45.8521 38.6204L45.1239 53.8707C45.8399 55.8929 46.2235 56.9723 46.2278 56.9766C46.2333 56.9823 46.6415 57.007 47.1346 57.0314C48.6285 57.1055 50.4799 57.2643 51.8844 57.4389C52.2096 57.4793 52.4894 57.5 52.5064 57.4848C52.5232 57.4698 52.5323 50.495 52.5267 41.9854L52.5164 26.5132H46.4408ZM35.4519 26.4927V41.9805C35.4519 50.4989 35.4603 57.4768 35.4705 57.487C35.4807 57.4971 36.0082 57.4473 36.6428 57.3762C37.2773 57.3052 38.1544 57.2168 38.5917 57.1798C39.2624 57.1232 41.2649 56.9945 41.4967 56.993C41.5642 56.9927 41.5685 56.6448 41.5783 50.4332L41.5887 43.8736L42.0732 45.2445L42.2446 45.7289L42.9726 30.4823L42.7224 29.7752C42.3488 28.7183 41.9748 27.6615 41.6005 26.6048L41.5603 26.4927H35.4519Z" fill="#B1060F" stroke="black" stroke-width="0.527857"/>
<path d="M35.4519 26.4927V35.1864L41.5762 51.4321C41.5769 51.0598 41.5776 50.8587 41.5783 50.4332L41.5887 43.8736L42.0732 45.2445C44.7703 52.8762 46.2192 56.968 46.2278 56.9766C46.2333 56.9823 46.6415 57.007 47.1346 57.0314C48.6285 57.1055 50.4799 57.2643 51.8844 57.4389C52.2096 57.4793 52.4894 57.5 52.5064 57.4848C52.5178 57.4745 52.5255 54.0545 52.5274 49.23L46.4317 31.705L46.4289 33.3634L46.4167 40.2136L45.8532 38.6234C45.3024 37.0696 44.9348 36.0305 42.7224 29.7752C42.3488 28.7183 41.9748 27.6615 41.6005 26.6048L41.5603 26.4927H35.4519Z" fill="url(#paint0_radial_109_724)"/>
<path d="M35.4519 26.4927L41.5885 43.8814V43.8736L42.073 45.2445C44.7701 52.8762 46.219 56.968 46.2276 56.9766C46.2332 56.9823 46.6414 57.007 47.1344 57.0314C48.6283 57.1055 50.4798 57.2643 51.8842 57.4389C52.2078 57.4791 52.486 57.4996 52.5057 57.485L46.4164 40.2105V40.2136L45.8528 38.6234C45.3021 37.0696 44.9344 36.0305 42.7221 29.7752C42.1271 28.093 41.6223 26.6666 41.6001 26.6048L41.5599 26.4927H35.4519Z" fill="#E50914"/>
<path d="M46.4408 26.5132L46.4289 33.3634L46.4167 40.2136L45.8532 38.6234L45.8521 38.6204L45.1239 53.8707C45.8399 55.8929 46.2235 56.9723 46.2278 56.9766C46.2333 56.9823 46.6415 57.007 47.1346 57.0314C48.6285 57.1055 50.4799 57.2643 51.8844 57.4389C52.2096 57.4793 52.4894 57.5 52.5064 57.4848C52.5232 57.4698 52.5323 50.495 52.5267 41.9854L52.5164 26.5132H46.4408ZM35.4519 26.4927V41.9805C35.4519 50.4989 35.4603 57.4768 35.4705 57.487C35.4807 57.4971 36.0082 57.4473 36.6428 57.3762C37.2773 57.3052 38.1544 57.2168 38.5917 57.1798C39.2624 57.1232 41.2649 56.9945 41.4967 56.993C41.5642 56.9927 41.5685 56.6448 41.5783 50.4332L41.5887 43.8736L42.0732 45.2445L42.2446 45.7289L42.9726 30.4823L42.7224 29.7752C42.3488 28.7183 41.9748 27.6615 41.6005 26.6048L41.5603 26.4927H35.4519Z" fill="#B1060F" stroke="black" stroke-width="0.527857"/>
<path d="M35.4519 26.4927V35.1864L41.5762 51.4321C41.5769 51.0598 41.5776 50.8587 41.5783 50.4332L41.5887 43.8736L42.0732 45.2445C44.7703 52.8762 46.2192 56.968 46.2278 56.9766C46.2333 56.9823 46.6415 57.007 47.1346 57.0314C48.6285 57.1055 50.4799 57.2643 51.8844 57.4389C52.2096 57.4793 52.4894 57.5 52.5064 57.4848C52.5178 57.4745 52.5255 54.0545 52.5274 49.23L46.4317 31.705L46.4289 33.3634L46.4167 40.2136L45.8532 38.6234C45.3024 37.0696 44.9348 36.0305 42.7224 29.7752C42.3488 28.7183 41.9748 27.6615 41.6005 26.6048L41.5603 26.4927H35.4519Z" fill="url(#paint1_radial_109_724)"/>
<path d="M35.4519 26.4927L41.5885 43.8814V43.8736L42.073 45.2445C44.7701 52.8762 46.219 56.968 46.2276 56.9766C46.2332 56.9823 46.6414 57.007 47.1344 57.0314C48.6283 57.1055 50.4798 57.2643 51.8842 57.4389C52.2078 57.4791 52.486 57.4996 52.5057 57.485L46.4164 40.2105V40.2136L45.8528 38.6234C45.3021 37.0696 44.9344 36.0305 42.7221 29.7752C42.1271 28.093 41.6223 26.6666 41.6001 26.6048L41.5599 26.4927H35.4519Z" fill="#E50914"/>
</g>
<defs>
<filter id="filter0_di_109_724" x="0" y="0" width="88" height="88" filterUnits="userSpaceOnUse" color-interpolation-filters="sRGB">
<feFlood flood-opacity="0" result="BackgroundImageFix"/>
<feColorMatrix in="SourceAlpha" type="matrix" values="0 0 0 0 0 0 0 0 0 0 0 0 0 0 0 0 0 0 127 0" result="hardAlpha"/>
<feOffset dy="2"/>
<feGaussianBlur stdDeviation="2"/>
<feComposite in2="hardAlpha" operator="out"/>
<feColorMatrix type="matrix" values="0 0 0 0 0 0 0 0 0 0 0 0 0 0 0 0 0 0 0.12 0"/>
<feBlend mode="normal" in2="BackgroundImageFix" result="effect1_dropShadow_109_724"/>
<feBlend mode="normal" in="SourceGraphic" in2="effect1_dropShadow_109_724" result="shape"/>
<feColorMatrix in="SourceAlpha" type="matrix" values="0 0 0 0 0 0 0 0 0 0 0 0 0 0 0 0 0 0 127 0" result="hardAlpha"/>
<feOffset dy="1"/>
<feGaussianBlur stdDeviation="1"/>
<feComposite in2="hardAlpha" operator="arithmetic" k2="-1" k3="1"/>
<feColorMatrix type="matrix" values="0 0 0 0 0 0 0 0 0 0 0 0 0 0 0 0 0 0 0.25 0"/>
<feBlend mode="normal" in2="shape" result="effect2_innerShadow_109_724"/>
</filter>
<radialGradient id="paint0_radial_109_724" cx="0" cy="0" r="1" gradientUnits="userSpaceOnUse" gradientTransform="translate(860.883 867.095) scale(1202.77 1202.78)">
<stop/>
<stop offset="1" stop-opacity="0"/>
</radialGradient>
<radialGradient id="paint1_radial_109_724" cx="0" cy="0" r="1" gradientUnits="userSpaceOnUse" gradientTransform="translate(860.883 867.095) scale(1202.77 1202.78)">
<stop/>
<stop offset="1" stop-opacity="0"/>
</radialGradient>
</defs>
</svg>
