<svg width="88" height="88" viewBox="0 0 88 88" fill="none" xmlns="http://www.w3.org/2000/svg">
<g filter="url(#filter0_di_109_748)">
<rect x="4" y="2" width="79.9957" height="79.9957" rx="11.4286" fill="#F0F0F0" shape-rendering="crispEdges"/>
<rect x="9.71411" y="7.71429" width="68.5671" height="68.5671" rx="11.4286" fill="#FEFEFE"/>
<g clip-path="url(#clip0_109_748)">
<mask id="mask0_109_748" style="mask-type:luminance" maskUnits="userSpaceOnUse" x="21" y="19" width="46" height="46">
<path d="M21.1426 19.1429H66.8526V64.8529H21.1426V19.1429Z" fill="white"/>
</mask>
<g mask="url(#mask0_109_748)">
<path d="M57.1392 21.2847H64.1492L48.8363 38.8308L66.8526 62.711H52.7478L41.6925 48.2308L29.0569 62.711H22.0405L38.4177 43.9373L21.1426 21.288H35.6065L45.5844 34.521L57.1392 21.2847ZM54.6741 58.5057H58.5595L33.4843 25.2713H29.3181L54.6741 58.5057Z" fill="black"/>
</g>
</g>
</g>
<defs>
<filter id="filter0_di_109_748" x="0" y="0" width="87.9956" height="87.9957" filterUnits="userSpaceOnUse" color-interpolation-filters="sRGB">
<feFlood flood-opacity="0" result="BackgroundImageFix"/>
<feColorMatrix in="SourceAlpha" type="matrix" values="0 0 0 0 0 0 0 0 0 0 0 0 0 0 0 0 0 0 127 0" result="hardAlpha"/>
<feOffset dy="2"/>
<feGaussianBlur stdDeviation="2"/>
<feComposite in2="hardAlpha" operator="out"/>
<feColorMatrix type="matrix" values="0 0 0 0 0 0 0 0 0 0 0 0 0 0 0 0 0 0 0.12 0"/>
<feBlend mode="normal" in2="BackgroundImageFix" result="effect1_dropShadow_109_748"/>
<feBlend mode="normal" in="SourceGraphic" in2="effect1_dropShadow_109_748" result="shape"/>
<feColorMatrix in="SourceAlpha" type="matrix" values="0 0 0 0 0 0 0 0 0 0 0 0 0 0 0 0 0 0 127 0" result="hardAlpha"/>
<feOffset dy="1"/>
<feGaussianBlur stdDeviation="1"/>
<feComposite in2="hardAlpha" operator="arithmetic" k2="-1" k3="1"/>
<feColorMatrix type="matrix" values="0 0 0 0 0 0 0 0 0 0 0 0 0 0 0 0 0 0 0.25 0"/>
<feBlend mode="normal" in2="shape" result="effect2_innerShadow_109_748"/>
</filter>
<clipPath id="clip0_109_748">
<rect width="45.71" height="45.71" fill="white" transform="translate(21.1426 19.1429)"/>
</clipPath>
</defs>
</svg>
