<svg width="64" height="64" viewBox="0 0 64 64" fill="none" xmlns="http://www.w3.org/2000/svg">
<rect width="64" height="64" rx="16" fill="#08272A"/>
<path d="M30.3799 14.0002C28.2033 13.9948 26.0469 14.4187 24.0341 15.2475C22.0214 16.0762 20.1918 17.2937 18.6499 18.8302C16.2123 21.2411 14.5958 24.3586 14.0299 27.7402C13.9569 28.1283 13.7346 28.4723 13.4108 28.6983C13.087 28.9244 12.6874 29.0145 12.2979 28.9493C11.9084 28.8841 11.56 28.6689 11.3274 28.3497C11.0949 28.0305 10.9967 27.6329 11.0539 27.2422C11.8368 22.69 14.2067 18.5622 17.7435 15.5911C21.2802 12.6201 25.7549 10.9978 30.3739 11.0122C32.9662 11.0094 35.5333 11.5196 37.9275 12.5133C40.3216 13.507 42.4955 14.9646 44.3239 16.8022L49.9939 23.4322V15.5122C49.9939 15.112 50.1529 14.7281 50.4359 14.4452C50.7189 14.1622 51.1027 14.0032 51.5029 14.0032C51.9032 14.0032 52.287 14.1622 52.57 14.4452C52.853 14.7281 53.0119 15.112 53.0119 15.5122V27.5122C53.0119 27.7099 52.9729 27.9057 52.8969 28.0883C52.821 28.2709 52.7097 28.4366 52.5694 28.576C52.4292 28.7154 52.2628 28.8257 52.0797 28.9006C51.8967 28.9754 51.7007 29.0134 51.5029 29.0122H39.5329C39.3352 29.0134 39.1392 28.9754 38.9562 28.9006C38.7731 28.8257 38.6067 28.7154 38.4665 28.576C38.3262 28.4366 38.2149 28.2709 38.139 28.0883C38.063 27.9057 38.0239 27.7099 38.0239 27.5122C38.0239 26.6872 38.6989 26.0122 39.5329 26.0122H48.2629L42.0829 18.8122C38.9697 15.7302 34.7637 14.0047 30.3829 14.0122L30.3799 14.0002ZM33.6499 50.0002C35.8266 50.0055 37.983 49.5817 39.9958 48.7529C42.0085 47.9241 43.8381 46.7067 45.3799 45.1702C47.8176 42.7592 49.4341 39.6417 49.9999 36.2602C50.0882 35.8868 50.315 35.5608 50.6346 35.3485C50.9542 35.1361 51.3425 35.0532 51.721 35.1165C52.0994 35.1799 52.4396 35.3847 52.6727 35.6895C52.9057 35.9944 53.0141 36.3764 52.9759 36.7582C52.1931 41.3104 49.8231 45.4382 46.2864 48.4092C42.7497 51.3803 38.275 53.0025 33.6559 52.9882C31.0637 52.9909 28.4966 52.4807 26.1024 51.487C23.7082 50.4933 21.5343 49.0357 19.7059 47.1982L14.0359 40.5682V48.4882C14.0368 48.7868 13.9487 49.079 13.7829 49.3273C13.6171 49.5757 13.381 49.769 13.1048 49.8826C12.8286 49.9963 12.5249 50.025 12.2322 49.9653C11.9396 49.9055 11.6715 49.76 11.4619 49.5472C11.3217 49.4081 11.2102 49.2427 11.134 49.0605C11.0578 48.8782 11.0184 48.6827 11.0179 48.4852V36.4852C11.0179 35.6572 11.6929 34.9852 12.5269 34.9852H24.4999C25.3339 34.9852 26.0089 35.6572 26.0089 36.4852C26.0089 37.3132 25.3339 37.9852 24.4999 37.9852H15.7699L21.9499 45.1852C25.0632 48.2672 29.2692 49.9927 33.6499 49.9852V50.0002Z" fill="#FEFEFE" stroke="#FEFEFE" stroke-width="0.375"/>
</svg>
