<svg width="64" height="64" viewBox="0 0 64 64" fill="none" xmlns="http://www.w3.org/2000/svg">
<rect x="1" y="1" width="62" height="62" rx="15" stroke="#DBDBDB" stroke-width="2"/>
<path d="M30.3801 14.0003C28.2034 13.995 26.047 14.4188 24.0342 15.2476C22.0215 16.0764 20.1919 17.2938 18.6501 18.8303C16.2124 21.2413 14.5959 24.3587 14.0301 27.7403C13.957 28.1284 13.7347 28.4724 13.4109 28.6984C13.0871 28.9245 12.6876 29.0146 12.2981 28.9494C11.9086 28.8843 11.5601 28.669 11.3276 28.3498C11.095 28.0307 10.9968 27.633 11.0541 27.2423C11.8369 22.6901 14.2069 18.5623 17.7436 15.5913C21.2803 12.6202 25.7551 10.998 30.3741 11.0123C32.9663 11.0096 35.5334 11.5197 37.9276 12.5135C40.3218 13.5072 42.4957 14.9648 44.3241 16.8023L49.9941 23.4323V15.5123C49.9941 15.1121 50.1531 14.7283 50.436 14.4453C50.719 14.1623 51.1029 14.0033 51.5031 14.0033C51.9033 14.0033 52.2871 14.1623 52.5701 14.4453C52.8531 14.7283 53.0121 15.1121 53.0121 15.5123V27.5123C53.0121 27.71 52.973 27.9058 52.897 28.0884C52.8211 28.271 52.7098 28.4367 52.5695 28.5762C52.4293 28.7156 52.2629 28.8259 52.0799 28.9007C51.8968 28.9756 51.7008 29.0135 51.5031 29.0123H39.5331C39.3353 29.0135 39.1393 28.9756 38.9563 28.9007C38.7732 28.8259 38.6068 28.7156 38.4666 28.5762C38.3263 28.4367 38.215 28.271 38.1391 28.0884C38.0632 27.9058 38.0241 27.71 38.0241 27.5123C38.0241 26.6873 38.6991 26.0123 39.5331 26.0123H48.2631L42.0831 18.8123C38.9698 15.7303 34.7638 14.0048 30.3831 14.0123L30.3801 14.0003ZM33.6501 50.0003C35.8268 50.0056 37.9831 49.5818 39.9959 48.753C42.0086 47.9242 43.8382 46.7068 45.3801 45.1703C47.8178 42.7593 49.4342 39.6419 50.0001 36.2603C50.0883 35.8869 50.3152 35.561 50.6347 35.3486C50.9543 35.1363 51.3427 35.0533 51.7211 35.1167C52.0995 35.18 52.4398 35.3848 52.6728 35.6897C52.9058 35.9945 53.0142 36.3765 52.9761 36.7583C52.1933 41.3105 49.8233 45.4383 46.2866 48.4093C42.7499 51.3804 38.2751 53.0026 33.6561 52.9883C31.0639 52.991 28.4967 52.4809 26.1025 51.4871C23.7084 50.4934 21.5345 49.0358 19.7061 47.1983L14.0361 40.5683V48.4883C14.037 48.7869 13.9489 49.0791 13.783 49.3274C13.6172 49.5758 13.3811 49.7691 13.1049 49.8828C12.8287 49.9964 12.525 50.0252 12.2324 49.9654C11.9398 49.9057 11.6716 49.7601 11.4621 49.5473C11.3218 49.4082 11.2103 49.2428 11.1341 49.0606C11.0579 48.8783 11.0185 48.6828 11.0181 48.4853V36.4853C11.0181 35.6573 11.6931 34.9853 12.5271 34.9853H24.5001C25.3341 34.9853 26.0091 35.6573 26.0091 36.4853C26.0091 37.3133 25.3341 37.9853 24.5001 37.9853H15.7701L21.9501 45.1853C25.0634 48.2673 29.2693 49.9928 33.6501 49.9853V50.0003Z" fill="#0C0C0C" stroke="#0C0C0C" stroke-width="0.375"/>
</svg>
