<svg width="64" height="64" viewBox="0 0 64 64" fill="none" xmlns="http://www.w3.org/2000/svg">
<rect x="1" y="1" width="62" height="62" rx="15" stroke="#DBDBDB" stroke-width="2"/>
<path d="M23.9917 38H30.8497M23.9917 30H39.9917M36.9917 12H26.9917C26.1961 12 25.433 12.3161 24.8704 12.8787C24.3078 13.4413 23.9917 14.2044 23.9917 15C23.9917 15.7956 24.3078 16.5587 24.8704 17.1213C25.433 17.6839 26.1961 18 26.9917 18H36.9917C37.7873 18 38.5504 17.6839 39.113 17.1213C39.6756 16.5587 39.9917 15.7956 39.9917 15C39.9917 14.2044 39.6756 13.4413 39.113 12.8787C38.5504 12.3161 37.7873 12 36.9917 12Z" stroke="#0C0C0C" stroke-width="3" stroke-linecap="round" stroke-linejoin="round"/>
<path d="M39.9917 15C43.0997 15.094 44.9517 15.44 46.2337 16.724C47.9937 18.48 47.9937 21.31 47.9937 26.964V40C47.9937 45.656 47.9937 48.484 46.2337 50.242C44.4777 52 41.6477 52 35.9937 52H27.9937C22.3337 52 19.5057 52 17.7497 50.242C15.9937 48.484 15.9917 45.656 15.9917 40V26.966C15.9917 21.31 15.9917 18.48 17.7497 16.724C19.0317 15.44 20.8857 15.094 23.9917 15" stroke="#0C0C0C" stroke-width="3" stroke-linecap="round" stroke-linejoin="round"/>
</svg>
