<svg width="64" height="64" viewBox="0 0 64 64" fill="none" xmlns="http://www.w3.org/2000/svg">
<rect width="64" height="64" rx="16" fill="#08272A"/>
<path d="M23.9918 38.0002H30.8498M23.9918 30.0002H39.9918M36.9918 12.0002H26.9918C26.1962 12.0002 25.4331 12.3163 24.8705 12.8789C24.3079 13.4415 23.9918 14.2046 23.9918 15.0002C23.9918 15.7959 24.3079 16.559 24.8705 17.1216C25.4331 17.6842 26.1962 18.0002 26.9918 18.0002H36.9918C37.7875 18.0002 38.5505 17.6842 39.1131 17.1216C39.6758 16.559 39.9918 15.7959 39.9918 15.0002C39.9918 14.2046 39.6758 13.4415 39.1131 12.8789C38.5505 12.3163 37.7875 12.0002 36.9918 12.0002Z" stroke="#FEFEFE" stroke-width="3" stroke-linecap="round" stroke-linejoin="round"/>
<path d="M39.9919 15.0002C43.0999 15.0942 44.9519 15.4402 46.2339 16.7242C47.9939 18.4802 47.9939 21.3102 47.9939 26.9642V40.0002C47.9939 45.6562 47.9939 48.4842 46.2339 50.2422C44.4779 52.0002 41.6479 52.0002 35.9939 52.0002H27.9939C22.3339 52.0002 19.5059 52.0002 17.7499 50.2422C15.9939 48.4842 15.9919 45.6562 15.9919 40.0002V26.9662C15.9919 21.3102 15.9919 18.4802 17.7499 16.7242C19.0319 15.4402 20.8859 15.0942 23.9919 15.0002" stroke="#FEFEFE" stroke-width="3" stroke-linecap="round" stroke-linejoin="round"/>
</svg>
